<svg viewBox="0 0 478.03 127.64" xmlns="http://www.w3.org/2000/svg" xmlns:xlink="http://www.w3.org/1999/xlink" id="Layer_2" overflow="hidden"><defs></defs><g id="Layer_2-2"><g><g><path d="M179.54 114.78C185.13 114.64 189.55 110 189.42 104.41 189.42 104.34 189.42 104.26 189.42 104.19 189.7 98.73 185.5 94.08 180.04 93.8 174.58 93.52 169.93 97.72 169.65 103.18 169.63 103.52 169.63 103.85 169.65 104.19 169.48 109.84 173.9 114.57 179.54 114.78M179.54 90.52C187 90.39 193.16 96.34 193.29 103.8 193.29 103.93 193.29 104.06 193.29 104.19 193.62 111.79 187.72 118.22 180.12 118.55 172.52 118.88 166.09 112.98 165.76 105.38 165.74 104.98 165.74 104.59 165.76 104.19 165.69 96.71 171.69 90.59 179.17 90.52 179.29 90.52 179.41 90.52 179.53 90.52" fill="#22222C"/><path d="M211.75 104.68C214.41 104.86 216.71 102.84 216.89 100.18 216.9 99.97 216.9 99.75 216.89 99.54 217.13 96.94 215.21 94.64 212.61 94.4 212.32 94.37 212.04 94.37 211.75 94.4L206.33 94.4 206.33 104.68 211.75 104.68ZM202.58 91.06 212.37 91.06C216.78 90.81 220.55 94.19 220.8 98.59 220.82 98.87 220.82 99.15 220.8 99.43 221.03 103.9 217.6 107.7 213.13 107.93 212.88 107.94 212.62 107.94 212.37 107.93L206.33 107.93 206.33 117.77 202.58 117.77 202.58 91.04Z" fill="#22222C"/></g><path d="M235.16 94.24 225.98 94.24 225.98 91.06 248.01 91.06 248.01 94.32 238.84 94.32 238.84 117.79 235.16 117.79 235.16 94.24Z" fill="#22222C"/><rect x="255.72" y="91.06" width="3.75" height="26.73" fill="#22222C"/><path d="M271.89 91.06 275.85 91.06 281.99 105.55C282.61 107.04 283.33 109.15 283.33 109.15 283.33 109.15 284.05 107.04 284.67 105.55L290.89 91.06 294.85 91.06 297.01 117.87 293.28 117.87 291.94 100.96 291.94 97.03C291.94 97.03 291.14 99.6 290.5 100.96L285.15 113.04 281.81 113.04 276.28 100.88C275.66 99.44 274.84 96.87 274.84 96.87L274.84 100.88 273.53 117.79 269.78 117.79 271.89 91.06Z" fill="#22222C"/><rect x="307.25" y="91.06" width="3.75" height="26.73" fill="#22222C"/><g><path d="M319.97 115.27 332.82 96.66C333.39 95.75 334.03 94.89 334.75 94.09 334.09 94.19 333.42 94.23 332.75 94.22L320.59 94.22 320.59 91.06 339.43 91.06 339.43 93.63 326.58 112.26C326 113.12 325.36 113.94 324.65 114.7L339.66 114.7 339.66 117.78 319.97 117.78 319.97 115.26Z" fill="#22222C"/><path d="M357.08 94.66C357.08 94.66 356.46 97.23 356 98.46L353.02 106.97 361.14 106.97 358.18 98.46C357.72 97.1 357.15 94.66 357.15 94.66L357.07 94.66ZM362.22 110.08 352.12 110.08 349.55 117.79 345.67 117.79 355.26 91.06 359.19 91.06 368.8 117.79 364.89 117.79 362.22 110.08Z" fill="#22222C"/></g><path d="M382.32 94.24 373.12 94.24 373.12 91.06 395.25 91.06 395.25 94.32 386.07 94.32 386.07 117.79 382.32 117.79 382.32 94.24Z" fill="#22222C"/><rect x="402.91" y="91.06" width="3.75" height="26.73" fill="#22222C"/><g><path d="M429.69 114.78C435.28 114.66 439.71 110.03 439.59 104.44 439.59 104.36 439.59 104.28 439.59 104.2 439.59 98.74 435.17 94.3 429.7 94.3 424.24 94.3 419.8 98.72 419.8 104.19L419.8 104.21C419.63 109.86 424.05 114.59 429.69 114.8M429.69 90.54C437.16 90.47 443.27 96.46 443.34 103.93 443.34 104.03 443.34 104.12 443.34 104.21 443.67 111.81 437.77 118.24 430.17 118.57 422.57 118.9 416.14 113 415.81 105.4 415.79 105 415.79 104.61 415.81 104.21 415.74 96.73 421.74 90.61 429.22 90.53 429.38 90.53 429.53 90.53 429.69 90.53" fill="#22222C"/><path d="M452.71 91.06 456.44 91.06 468.37 108.48C469.35 109.92 470.61 112.36 470.61 112.36 470.61 112.36 470.33 109.94 470.33 108.48L470.33 91.06 474.19 91.06 474.19 117.79 470.49 117.79 458.54 100.39C457.54 98.9 456.3 96.48 456.3 96.48 456.3 96.48 456.56 98.87 456.56 100.39L456.56 117.79 452.81 117.79 452.73 91.06Z" fill="#22222C"/><path d="M189.49 10.28C196.62 9.99 203.61 12.31 209.15 16.81L205.32 22.46C200.95 19.11 195.59 17.3 190.08 17.32 177.38 17.32 169.73 26.57 169.73 38.14 169.73 50.68 178.31 59.34 189.65 59.34 195.45 59.16 200.94 56.71 204.94 52.5L204.94 44.79 196.15 44.79 196.15 38.08 211.83 38.08 211.83 65.35 205.17 65.35 205.17 59.59 205.09 59.59C200.66 63.92 194.68 66.29 188.49 66.17 173.94 66.17 161.92 54.68 161.92 38.16 161.56 23.12 173.47 10.64 188.51 10.28 188.84 10.28 189.17 10.28 189.5 10.28" fill="#22222C"/><path d="M229.04 11.21 236.62 11.21 236.62 46.13C236.62 54.38 241.97 59.21 250.24 59.21 258.51 59.21 264.02 54.38 264.02 45.97L264.02 11.21 271.73 11.21 271.73 46.13C271.73 58.13 263.09 66.18 250.45 66.18 237.81 66.18 229.17 58.14 229.17 46.13L229.04 11.2Z" fill="#22222C"/><path d="M310.1 37.09C315.06 37.44 319.35 33.7 319.7 28.74 319.73 28.26 319.73 27.77 319.68 27.29 319.9 23.97 318.24 20.81 315.39 19.09 313.06 18.05 310.5 17.62 307.96 17.86L299.22 17.86 299.22 37.08 310.09 37.08ZM291.7 11.21 308.25 11.21C311.66 10.98 315.09 11.4 318.35 12.44 324.2 14.87 327.85 20.75 327.45 27.06 327.75 33.53 323.82 39.45 317.74 41.68L317.74 41.83C318.35 42.59 318.89 43.41 319.36 44.27L330.8 65.34 322.22 65.34 310.81 43.83 299.24 43.83 299.24 65.34 291.53 65.34 291.71 11.19Z" fill="#22222C"/><path d="M370.96 59.11C381.99 59.11 390.85 49.93 390.85 37.75 390.85 26.74 381.92 17.81 370.91 17.81 359.9 17.81 350.97 26.74 350.97 37.75 350.97 49.93 359.94 59.21 370.97 59.21L370.97 59.11ZM370.96 10.28C386 10.02 398.41 22.01 398.66 37.05 398.66 37.32 398.66 37.58 398.66 37.85 398.66 53.18 386.23 65.61 370.9 65.61 355.57 65.61 343.14 53.18 343.14 37.85 343 22.76 355.11 10.41 370.2 10.27 370.45 10.27 370.7 10.27 370.95 10.27" fill="#22222C"/><path d="M435.62 58.67C440.34 59.07 444.49 55.56 444.89 50.83 444.93 50.39 444.93 49.94 444.89 49.49 445.17 44.64 441.47 40.49 436.62 40.21 436.26 40.19 435.89 40.19 435.53 40.21L423.45 40.21 423.45 58.66 435.61 58.66ZM434.69 33.95C438.95 34.1 442.52 30.77 442.67 26.52 442.67 26.26 442.67 26.01 442.66 25.75 442.96 21.64 439.88 18.07 435.77 17.77 435.37 17.74 434.96 17.74 434.56 17.77L423.38 17.77 423.38 33.94 434.69 33.94ZM415.8 11.2 434.69 11.2C443.81 11.2 450.39 16.34 450.39 24.98 450.57 29.83 447.95 34.36 443.66 36.62L443.66 36.77C449.24 38.63 452.89 44 452.55 49.88 452.55 60.16 444.66 65.3 435.15 65.3L415.8 65.3 415.8 11.21Z" fill="#22222C"/></g><rect x="470.45" y="11.21" width="7.58" height="54.15" fill="#22222C"/><g><path d="M94.5 6.86 59.08 0 12.07 30.33 74.92 49.88 94.5 6.86Z" fill="#C61814"/><path d="M9.3 34.11 6.36 53.16 0 94.45 77.03 121.14 95.78 127.64 74.33 54.35 9.3 34.11Z" fill="#ED3424"/><path d="M97.79 10.33 78.49 52.75 100.14 126.74 128.5 98.36 97.79 10.33Z" fill="#C61814"/></g></g></g></svg>
